<svg width="1374" height="947" className="opacity-20" viewBox="0 0 1374 947" fill="none" xmlns="http://www.w3.org/2000/svg">
<path d="M687.08 1288.72C1065.67 1288.72 1372.58 972.512 1372.58 582.454C1372.58 192.397 1065.67 -123.808 687.08 -123.808C308.488 -123.808 1.5791 192.397 1.5791 582.454C1.5791 972.512 308.488 1288.72 687.08 1288.72Z" stroke="black" stroke-opacity="0.18" stroke-width="2.4523" stroke-miterlimit="10" style="mix-blend-mode:soft-light"/>
<path d="M687.078 1261.42C1051.04 1261.42 1346.09 957.439 1346.09 582.455C1346.09 207.471 1051.04 -96.5142 687.078 -96.5142C323.117 -96.5142 28.0684 207.471 28.0684 582.455C28.0684 957.439 323.117 1261.42 687.078 1261.42Z" stroke="black" stroke-opacity="0.18" stroke-width="2.4523" stroke-miterlimit="10" style="mix-blend-mode:soft-light"/>
<path d="M687.081 1234.12C1036.41 1234.12 1319.59 942.361 1319.59 582.454C1319.59 222.548 1036.41 -69.2139 687.081 -69.2139C337.754 -69.2139 54.5693 222.548 54.5693 582.454C54.5693 942.361 337.754 1234.12 687.081 1234.12Z" stroke="black" stroke-opacity="0.18" stroke-width="2.4523" stroke-miterlimit="10" style="mix-blend-mode:soft-light"/>
<path d="M687.08 1206.83C1021.78 1206.83 1293.1 927.287 1293.1 582.454C1293.1 237.621 1021.78 -41.9209 687.08 -41.9209C352.384 -41.9209 81.0596 237.621 81.0596 582.454C81.0596 927.287 352.384 1206.83 687.08 1206.83Z" stroke="black" stroke-opacity="0.18" stroke-width="2.4523" stroke-miterlimit="10" style="mix-blend-mode:soft-light"/>
<path d="M687.079 1179.54C1007.14 1179.54 1266.61 912.213 1266.61 582.454C1266.61 252.695 1007.14 -14.6279 687.079 -14.6279C367.013 -14.6279 107.549 252.695 107.549 582.454C107.549 912.213 367.013 1179.54 687.079 1179.54Z" stroke="black" stroke-opacity="0.18" stroke-width="2.4523" stroke-miterlimit="10" style="mix-blend-mode:soft-light"/>
<path d="M687.081 1152.24C992.516 1152.24 1240.12 897.14 1240.12 582.454C1240.12 267.769 992.516 12.6655 687.081 12.6655C381.646 12.6655 134.042 267.769 134.042 582.454C134.042 897.14 381.646 1152.24 687.081 1152.24Z" stroke="black" stroke-opacity="0.18" stroke-width="2.4523" stroke-miterlimit="10" style="mix-blend-mode:soft-light"/>
<path d="M687.08 1124.94C977.88 1124.94 1213.62 882.062 1213.62 582.455C1213.62 282.847 977.88 39.9668 687.08 39.9668C396.279 39.9668 160.539 282.847 160.539 582.455C160.539 882.062 396.279 1124.94 687.08 1124.94Z" stroke="black" stroke-opacity="0.18" stroke-width="2.4523" stroke-miterlimit="10" style="mix-blend-mode:soft-light"/>
<path d="M687.078 1097.65C963.248 1097.65 1187.13 866.989 1187.13 582.454C1187.13 297.92 963.248 67.2598 687.078 67.2598C410.908 67.2598 187.028 297.92 187.028 582.454C187.028 866.989 410.908 1097.65 687.078 1097.65Z" stroke="black" stroke-opacity="0.18" stroke-width="2.4523" stroke-miterlimit="10" style="mix-blend-mode:soft-light"/>
<path d="M687.08 1070.36C948.619 1070.36 1160.64 851.915 1160.64 582.455C1160.64 312.994 948.619 94.5532 687.08 94.5532C425.54 94.5532 213.521 312.994 213.521 582.455C213.521 851.915 425.54 1070.36 687.08 1070.36Z" stroke="black" stroke-opacity="0.18" stroke-width="2.4523" stroke-miterlimit="10" style="mix-blend-mode:soft-light"/>
<path d="M687.078 1043.06C933.987 1043.06 1134.15 836.841 1134.15 582.454C1134.15 328.067 933.987 121.846 687.078 121.846C440.169 121.846 240.01 328.067 240.01 582.454C240.01 836.841 440.169 1043.06 687.078 1043.06Z" stroke="black" stroke-opacity="0.18" stroke-width="2.4523" stroke-miterlimit="10" style="mix-blend-mode:soft-light"/>
<path d="M687.08 1015.76C919.354 1015.76 1107.65 821.763 1107.65 582.454C1107.65 343.145 919.354 149.146 687.08 149.146C454.805 149.146 266.51 343.145 266.51 582.454C266.51 821.763 454.805 1015.76 687.08 1015.76Z" stroke="black" stroke-opacity="0.18" stroke-width="2.4523" stroke-miterlimit="10" style="mix-blend-mode:soft-light"/>
<path d="M687.079 988.468C904.723 988.468 1081.16 806.689 1081.16 582.454C1081.16 358.218 904.723 176.439 687.079 176.439C469.435 176.439 293 358.218 293 582.454C293 806.689 469.435 988.468 687.079 988.468Z" stroke="black" stroke-opacity="0.18" stroke-width="2.4523" stroke-miterlimit="10" style="mix-blend-mode:soft-light"/>
<path d="M687.078 961.175C890.091 961.175 1054.67 791.616 1054.67 582.454C1054.67 373.292 890.091 203.733 687.078 203.733C484.064 203.733 319.489 373.292 319.489 582.454C319.489 791.616 484.064 961.175 687.078 961.175Z" stroke="black" stroke-opacity="0.18" stroke-width="2.4523" stroke-miterlimit="10" style="mix-blend-mode:soft-light"/>
<path d="M687.08 933.883C875.463 933.883 1028.18 776.543 1028.18 582.455C1028.18 388.366 875.463 231.026 687.08 231.026C498.697 231.026 345.982 388.366 345.982 582.455C345.982 776.543 498.697 933.883 687.08 933.883Z" stroke="black" stroke-opacity="0.18" stroke-width="2.4523" stroke-miterlimit="10" style="mix-blend-mode:soft-light"/>
<path d="M687.08 906.582C860.828 906.582 1001.68 761.465 1001.68 582.454C1001.68 403.444 860.828 258.327 687.08 258.327C513.331 258.327 372.48 403.444 372.48 582.454C372.48 761.465 513.331 906.582 687.08 906.582Z" stroke="black" stroke-opacity="0.18" stroke-width="2.4523" stroke-miterlimit="10" style="mix-blend-mode:soft-light"/>
<path d="M687.08 879.289C846.198 879.289 975.188 746.392 975.188 582.455C975.188 418.518 846.198 285.621 687.08 285.621C527.962 285.621 398.972 418.518 398.972 582.455C398.972 746.392 527.962 879.289 687.08 879.289Z" stroke="black" stroke-opacity="0.18" stroke-width="2.4523" stroke-miterlimit="10" style="mix-blend-mode:soft-light"/>
<path d="M687.079 851.996C831.567 851.996 948.697 731.318 948.697 582.455C948.697 433.591 831.567 312.914 687.079 312.914C542.592 312.914 425.462 433.591 425.462 582.455C425.462 731.318 542.592 851.996 687.079 851.996Z" stroke="black" stroke-opacity="0.18" stroke-width="2.4523" stroke-miterlimit="10" style="mix-blend-mode:soft-light"/>
<path d="M687.08 824.702C816.937 824.702 922.207 716.244 922.207 582.454C922.207 448.664 816.937 340.206 687.08 340.206C557.223 340.206 451.953 448.664 451.953 582.454C451.953 716.244 557.223 824.702 687.08 824.702Z" stroke="black" stroke-opacity="0.18" stroke-width="2.4523" stroke-miterlimit="10" style="mix-blend-mode:soft-light"/>
<path d="M687.08 797.401C802.303 797.401 895.709 701.166 895.709 582.454C895.709 463.742 802.303 367.507 687.08 367.507C571.858 367.507 478.452 463.742 478.452 582.454C478.452 701.166 571.858 797.401 687.08 797.401Z" stroke="black" stroke-opacity="0.18" stroke-width="2.4523" stroke-miterlimit="10" style="mix-blend-mode:soft-light"/>
<path d="M687.078 770.108C787.67 770.108 869.216 686.093 869.216 582.455C869.216 478.816 787.67 394.801 687.078 394.801C586.486 394.801 504.94 478.816 504.94 582.455C504.94 686.093 586.486 770.108 687.078 770.108Z" stroke="black" stroke-opacity="0.18" stroke-width="2.4523" stroke-miterlimit="10" style="mix-blend-mode:soft-light"/>
<path d="M687.078 742.815C773.04 742.815 842.725 671.019 842.725 582.454C842.725 493.89 773.04 422.094 687.078 422.094C601.117 422.094 531.432 493.89 531.432 582.454C531.432 671.019 601.117 742.815 687.078 742.815Z" stroke="black" stroke-opacity="0.18" stroke-width="2.4523" stroke-miterlimit="10" style="mix-blend-mode:soft-light"/>
<path d="M687.077 715.522C758.408 715.522 816.233 655.946 816.233 582.454C816.233 508.963 758.408 449.387 687.077 449.387C615.746 449.387 557.921 508.963 557.921 582.454C557.921 655.946 615.746 715.522 687.077 715.522Z" stroke="black" stroke-opacity="0.18" stroke-width="2.4523" stroke-miterlimit="10" style="mix-blend-mode:soft-light"/>
<path d="M687.078 688.221C743.775 688.221 789.736 640.868 789.736 582.455C789.736 524.041 743.775 476.688 687.078 476.688C630.382 476.688 584.421 524.041 584.421 582.455C584.421 640.868 630.382 688.221 687.078 688.221Z" stroke="black" stroke-opacity="0.18" stroke-width="2.4523" stroke-miterlimit="10" style="mix-blend-mode:soft-light"/>
<path d="M687.079 660.929C729.145 660.929 763.246 625.795 763.246 582.455C763.246 539.115 729.145 503.981 687.079 503.981C645.013 503.981 610.912 539.115 610.912 582.455C610.912 625.795 645.013 660.929 687.079 660.929Z" stroke="black" stroke-opacity="0.18" stroke-width="2.4523" stroke-miterlimit="10" style="mix-blend-mode:soft-light"/>
</svg>
